<svg xmlns="http://www.w3.org/2000/svg" version="1.1" xmlns:xlink="http://www.w3.org/1999/xlink" xmlns:svgjs="http://svgjs.dev/svgjs" width="1000" height="1000"><g clip-path="url(#SvgjsClipPath1849)"><rect width="1000" height="1000" fill="#7f4a88"></rect><g transform="matrix(0.6926406926406926,0,0,0.6926406926406926,100,153.6796536796537)"><svg xmlns="http://www.w3.org/2000/svg" version="1.1" xmlns:xlink="http://www.w3.org/1999/xlink" xmlns:svgjs="http://svgjs.dev/svgjs" width="1155" height="1000"><svg width="1155" height="1000" viewBox="0 0 1155 1000" fill="none" xmlns="http://www.w3.org/2000/svg">
<path d="M374.366 125L530.474 125C539.265 125 545.799 148.405 550.076 195.214C624.209 626.927 661.276 850.54 661.276 865.978C661.276 867.403 657.95 870.611 651.297 875.601H528.691C519.9 875.601 513.366 849.582 509.089 797.548C501.248 756.917 496.733 727.692 495.545 709.871H405.73C390.761 817.745 381.613 871.681 378.287 871.681L372.584 875.601H249.623C243.208 871.799 240 867.879 240 863.84C249.029 800.873 290.014 557.801 362.961 134.627L374.366 125ZM376.505 140.693V142.475H380.426V140.693H376.505ZM364.742 218.741C437.211 175.02 491.149 150.905 526.552 146.39V140.688H524.77C481.527 149.004 428.183 173.002 364.743 212.682L364.742 218.741ZM359.04 244.051L359.04 251.89C393.73 226.704 428.184 207.1 462.399 193.082C480.932 185.479 504.337 179.658 532.613 175.618C531.187 173.005 530.474 171.104 530.474 169.916C508.138 170.867 469.766 183.222 415.354 206.984C415.116 208.647 400.86 217.082 372.584 232.288C363.555 237.991 359.04 241.912 359.04 244.051ZM374.366 259.361C364.625 256.747 358.804 255.441 356.903 255.441V261.5C386.604 264.351 434.126 292.983 499.467 347.394C518.95 364.739 531.899 378.282 538.315 388.025C542.117 388.025 553.165 397.173 571.461 415.468V411.548C571.461 407.033 566.233 399.905 555.779 390.163C554.591 387.549 553.997 385.649 553.997 384.461C561.838 380.659 565.758 378.045 565.758 376.62V372.699C553.878 376.501 547.938 379.114 547.938 380.54C545.087 380.54 537.958 375.313 526.553 364.858C526.553 360.581 537.602 354.76 559.699 347.394V341.335C552.571 341.335 539.62 345.85 520.85 354.879C512.059 351.79 506.831 347.275 505.168 341.335C530.83 330.88 548.411 325.653 557.916 325.653C556.49 323.514 555.778 321.019 555.778 318.168C521.8 328.385 502.316 333.494 497.327 333.494H493.407C482.952 327.316 477.725 323.395 477.725 321.732V318.168C486.516 307.714 511.94 302.486 553.996 302.486C552.571 298.447 551.264 296.427 550.076 296.427C515.147 296.427 487.822 301.654 468.102 312.109C452.42 306.407 444.578 300.586 444.578 294.645C458.597 283.478 483.31 275.636 518.711 271.122H520.849C528.928 280.388 536.65 285.021 544.017 285.021C546.631 283.596 548.651 282.883 550.076 282.883L547.938 273.26C543.898 275.874 539.978 277.18 536.176 277.18L532.612 271.122V263.281C532.612 261.38 535.82 252.945 542.235 237.976V232.273C524.652 232.273 479.746 245.936 407.513 273.26L390.049 265.419V263.281C400.741 251.638 433.886 236.075 489.487 216.591C520.612 211.839 536.176 207.919 536.176 204.83V200.909C499.822 207.562 472.618 214.809 454.558 222.65C434.124 232.867 407.394 245.105 374.366 259.361ZM518.704 244.051H530.465C530.465 259.495 520.129 267.217 499.458 267.217C486.389 269.83 464.292 276.958 433.166 288.602C422.712 284.087 417.484 280.879 417.484 278.979C417.484 275.415 433.047 268.881 464.174 259.377C470.114 253.674 488.289 248.565 518.704 244.051ZM349.062 304.269C349.062 308.546 348.468 311.873 347.28 314.249C371.278 314.249 403.119 327.198 442.798 353.097H444.58V349.177C427.235 329.931 398.721 315.675 359.042 306.407C354.765 306.407 351.438 305.695 349.062 304.269ZM343.359 337.426V343.485C355.477 347.049 384.702 359.405 431.036 380.553L438.877 382.335L440.659 378.414C384.108 351.089 351.673 337.426 343.359 337.426ZM458.485 357.025C458.485 365.579 466.207 374.726 481.651 384.468C495.669 399.675 528.815 429.493 581.088 473.926V466.085C504.103 393.377 463.237 357.025 458.485 357.025ZM339.438 364.871V372.712C355.357 372.712 386.602 386.969 433.173 415.482H434.955V411.562C427.589 400.87 396.346 385.307 341.22 364.872L339.438 364.871ZM464.178 391.952V398.01C504.57 438.642 544.844 474.399 585.001 505.289H587.139V503.151C587.139 495.31 575.378 484.26 551.855 470.005C519.778 443.157 490.552 417.138 464.178 391.952ZM333.735 394.087V401.928C353.219 405.492 385.653 421.055 431.034 448.617V438.994C389.691 416.184 357.257 401.214 333.735 394.087ZM450.638 415.473L427.114 575.5H473.804C459.548 473.805 452.419 420.462 452.419 415.473H450.638ZM329.816 417.608C329.816 421.41 329.102 425.924 327.677 431.152C343.596 442.794 361.773 480.454 382.208 544.133C374.366 550.548 367.238 553.756 360.823 553.756L321.974 483.9H318.054V493.523C341.338 531.063 352.982 554.468 352.982 563.737V567.657C352.982 570.27 351.675 571.577 349.062 571.577C345.973 571.577 340.152 560.529 331.598 538.432C321.144 521.562 315.322 513.127 314.134 513.127C314.134 515.978 313.422 518.473 311.996 520.612C327.678 548.887 335.52 566.471 335.52 573.359C334.332 577.399 330.411 579.418 323.758 579.418H321.976C320.55 579.418 316.63 569.558 310.215 549.836C307.601 549.836 306.294 551.856 306.294 555.895C306.294 558.509 307.601 567.538 310.215 582.983C306.888 585.596 303.68 586.903 300.592 586.903V594.744C316.986 588.329 331.243 585.121 343.362 585.121L341.223 604.723C342.649 612.327 344.668 616.129 347.282 616.129L368.667 608.644C388.15 613.396 397.893 620.524 397.893 630.029L393.973 631.811C374.489 629.197 360.827 627.89 352.986 627.89C334.927 627.89 314.137 635.019 290.614 649.275L288.832 659.255C297.148 656.641 302.969 655.335 306.295 655.335H318.057C325.422 659.612 330.65 664.126 333.739 668.878V678.858C329.7 683.61 327.68 688.124 327.68 692.401C336.709 696.203 341.224 702.024 341.224 709.865V713.786C341.224 715.686 339.323 717.587 335.521 719.488C335.521 723.052 338.729 726.378 345.144 729.467C345.144 717.112 364.627 701.429 403.594 682.422C410.248 673.393 413.574 661.155 413.574 645.712C403.832 615.774 388.862 600.805 368.667 600.805C361.539 601.993 355.718 602.587 351.203 602.587L349.065 598.667V596.885C349.065 581.441 361.42 567.066 386.132 553.759H396.112C402.527 553.759 408.942 555.779 415.358 559.818V551.977C415.12 550.076 407.992 546.156 393.973 540.216C388.746 534.751 386.132 528.217 386.132 520.613V516.693H388.27C394.686 516.693 404.427 521.92 417.497 532.375H419.279V528.455C409.537 518.475 394.567 508.734 374.372 499.228L366.887 470.002C369.738 470.002 381.975 477.843 403.597 493.526L423.199 505.287V499.228C423.199 498.278 399.794 482.121 352.986 450.756C345.145 441.489 340.63 434.243 339.442 429.015C340.63 429.015 341.224 428.421 341.224 427.233C366.41 435.312 395.042 450.281 427.118 472.14V466.081C392.666 439.47 360.228 423.311 329.816 417.608ZM469.89 435.072L469.889 440.774C486.284 455.743 514.915 479.148 555.783 510.988V514.908C546.754 517.522 539.626 518.828 534.398 518.828C531.072 513.364 521.33 506.235 505.174 497.444C505.174 496.018 495.432 487.583 475.948 472.139V481.762C507.55 505.046 523.823 516.691 524.776 516.691V518.829C524.776 522.631 517.529 526.551 503.035 530.59H499.471C499.471 527.501 493.531 519.661 481.651 507.067V505.285H479.869V507.067C479.869 509.443 483.789 519.898 491.63 538.432C487.591 538.432 485.571 539.739 485.571 542.352V548.055H487.71C520.023 530.947 553.762 521.206 588.93 518.828V513.126L587.148 509.206L577.168 510.988H573.248C565.882 510.988 531.432 485.683 469.89 435.072ZM493.412 598.666C489.135 598.666 479.394 596.05 464.187 590.823H444.585L446.724 600.803V616.128C442.684 628.484 440.665 636.325 440.665 639.652C442.09 648.681 442.803 653.908 442.803 655.334C438.526 669.352 431.992 682.303 423.201 694.182H433.181C443.398 675.649 449.813 661.987 452.427 653.195H454.565C460.03 653.195 475.593 666.857 501.255 694.182C507.67 694.182 510.878 698.816 510.878 708.082C523.234 718.774 540.223 745.98 561.845 789.701C576.101 812.748 583.23 832.943 583.23 850.29L577.171 859.913H596.773V858.131C593.209 858.131 590.001 848.389 587.15 828.904C565.054 769.266 531.908 716.637 487.713 671.016C463.001 651.533 450.645 641.078 450.645 639.651C450.645 635.137 452.546 627.296 456.348 616.128C455.16 613.752 454.566 611.851 454.566 610.425L456.348 592.961C511.709 616.009 558.519 662.105 596.772 731.247C616.256 777.342 625.999 819.638 625.999 858.128H616.376V859.91H645.602V858.128C638.949 858.128 635.622 856.821 635.622 854.208V852.069H645.602C645.602 848.03 641.681 842.209 633.84 834.606L639.543 830.685C639.543 832.111 640.256 832.824 641.681 832.824V826.765C641.681 824.864 637.761 822.963 629.92 821.063L628.138 807.519C634.553 806.093 637.761 804.786 637.761 803.599C637.761 801.46 633.84 798.134 625.999 793.619C622.198 788.867 620.297 783.046 620.297 776.156V774.374L622.079 770.453L625.999 772.235H631.702V768.315C631.702 767.127 625.881 763.919 614.238 758.692L602.476 723.407L606.397 721.625H608.535C614 721.625 619.228 722.932 624.217 725.546V721.625C624.217 717.348 614.476 714.735 594.991 713.784L583.23 698.102C583.23 692.637 592.972 689.43 612.456 688.479C615.069 689.667 616.97 690.261 618.158 690.261V684.559H600.694L577.17 686.341C568.141 677.312 563.627 670.184 563.627 664.956V659.253C577.645 655.214 591.902 653.194 606.397 653.194C609.01 654.62 611.03 655.333 612.456 655.333V651.412C612.456 648.799 611.149 647.492 608.535 647.492H606.397C585.725 647.492 569.568 650.105 557.924 655.333C551.034 652.719 545.094 647.492 540.104 639.651C540.104 630.622 553.766 626.107 581.091 626.107H585.012C586.437 626.107 587.15 625.394 587.15 623.969L591.07 626.107H606.396V620.048L596.773 618.266H594.991C569.329 618.266 548.54 622.781 532.619 631.81C526.679 629.196 523.352 626.583 522.639 623.969V618.267C531.668 609.238 553.172 602.11 587.15 596.882C590.239 596.882 595.348 596.169 602.476 594.743V592.961C602.476 590.348 601.288 589.041 598.912 589.041C576.815 589.041 546.164 597.476 506.957 614.345C501.968 612.445 499.473 610.544 499.473 608.643V604.723C499.473 601.634 505.294 599.02 516.937 596.882C516.937 590.229 536.42 582.388 575.387 573.358C581.565 570.745 589.406 569.438 598.911 569.438C597.485 566.824 596.772 564.924 596.772 563.736C574.437 563.736 544.499 572.765 506.957 590.823C501.492 590.823 496.976 593.439 493.412 598.666ZM503.028 577.279L506.949 579.418V573.359C504.335 573.596 503.028 574.903 503.028 577.279ZM364.742 633.958C392.067 636.097 405.73 640.017 405.73 645.72V655.343C405.73 673.163 390.76 686.113 360.823 694.191C358.209 699.419 354.289 702.032 349.061 702.032C342.646 693.241 339.438 686.707 339.438 682.43C339.438 681.48 340.032 677.678 341.22 671.025C341.22 666.273 334.092 657.837 319.835 645.72C319.835 640.017 334.805 636.097 364.742 633.958ZM282.77 700.242L280.988 704.163C290.017 709.628 294.532 718.063 294.532 729.467V731.25C294.532 741.704 286.809 750.852 271.366 758.693V768.316C290.849 757.386 300.592 746.338 300.592 735.17V723.409C300.592 707.964 294.65 700.242 282.77 700.242ZM362.961 777.939C366.763 795.047 371.277 803.602 376.505 803.602V799.681L370.446 776.157C370.446 761.188 376.98 743.012 390.048 721.627V717.706C371.99 736.953 362.961 757.029 362.961 777.939ZM255.683 855.994C286.809 828.194 307.6 806.096 318.055 789.702V785.782H315.916C288.592 815.719 269.11 835.918 257.466 846.371L255.683 855.994ZM271.365 858.132V859.914H290.611C290.611 857.776 298.452 848.747 314.135 832.827C319.362 827.124 321.976 821.897 321.976 817.145H319.837C294.889 844.469 278.734 858.132 271.365 858.132ZM319.836 859.914H333.735C333.735 849.222 343.477 842.094 362.961 838.529H370.446L372.585 828.906H370.446C355.002 828.906 338.131 839.243 319.836 859.914ZM725.589 125.712L830.729 125.711C839.996 125.711 844.629 130.345 844.629 139.611V869.536C844.629 871.674 842.728 873.694 838.926 875.595H723.806C721.668 875.595 719.648 873.575 717.747 869.536V133.553C717.747 131.652 720.361 129.038 725.589 125.712ZM725.589 137.482V153.52C747.448 162.074 783.8 197.12 834.651 258.66V248.681C834.651 239.414 802.337 205.081 737.707 145.679H745.548C770.023 159.223 799.723 187.617 834.65 230.861V223.02C819.443 200.21 795.683 174.431 763.368 145.679C767.407 143.066 772.04 141.759 777.268 141.759C789.385 141.759 803.879 150.907 820.749 169.202L834.649 181.32V175.261L808.987 145.679L816.828 141.759C822.768 141.759 828.708 144.372 834.649 149.6V137.482L820.749 135.7H811.126C794.256 135.7 775.723 136.294 755.526 137.482C745.546 134.869 740.2 133.562 739.487 133.562C734.26 136.175 729.628 137.482 725.589 137.482ZM725.589 177.39V183.093C776.912 222.536 812.671 263.642 832.868 306.41V308.192H834.65V294.292C821.581 266.254 796.515 235.247 759.447 201.269L725.589 177.39ZM725.589 256.514V262.574C753.388 291.086 777.862 320.908 799.008 352.031C797.82 354.645 797.226 356.546 797.226 357.734H795.088C787.722 357.734 779.762 349.18 771.208 332.071C743.17 301.894 727.966 286.69 725.588 286.451V294.292C758.615 325.181 775.128 347.635 775.128 361.653C770.851 364.504 766.931 365.93 763.367 365.93C762.654 362.604 750.061 348.704 725.587 324.23V332.071C745.547 352.505 755.525 364.384 755.525 367.711L749.466 371.631H745.546L725.586 353.811V361.652L733.784 373.77V377.69L725.586 385.531V391.59H727.725C742.932 380.66 762.772 372.107 787.245 365.928C790.096 365.928 805.896 362.602 834.648 355.948V347.751L806.848 352.028C805.898 344.425 779.524 312.585 727.726 256.51L725.589 256.514ZM751.607 438.995C742.578 433.768 734.618 431.155 727.728 431.155H725.589V438.996C736.282 438.996 742.935 443.035 745.549 451.113C748.4 458.954 751.014 462.875 753.39 462.875H755.529C755.529 449.806 760.162 439.946 769.428 433.293H781.19C791.407 433.293 799.962 439.827 806.852 452.895C806.852 457.41 799.011 462.756 783.329 468.933C777.864 479.388 775.131 488.654 775.131 496.733L779.408 498.515C784.16 495.901 789.388 494.594 795.09 494.594H799.011L805.07 498.515C800.08 506.593 796.754 516.573 795.09 528.452C804.357 546.035 808.99 557.321 808.99 562.312C807.564 564.45 806.852 567.064 806.852 570.153C810.891 571.816 820.157 579.776 834.651 594.032V581.915L830.73 576.212V570.153H834.651V562.312H832.869C828.829 562.312 823.483 563.619 816.83 566.232V552.333C816.83 549.243 822.771 545.917 834.651 542.353V536.294C821.82 538.908 814.572 540.214 812.91 540.214C806.257 532.373 802.93 527.74 802.93 526.315C802.93 519.899 813.504 513.959 834.651 508.494V502.792L820.751 504.574H815.048C815.048 495.307 809.702 487.347 799.01 480.694C799.01 475.467 810.89 472.259 834.65 471.071V462.874H818.968C816.355 462.874 815.048 461.567 815.048 458.953C815.048 448.499 821.582 443.271 834.65 443.271V435.074H832.868C830.255 435.074 823.601 436.381 812.908 438.994C806.968 436.856 802.335 432.935 799.008 427.233V421.174C821.105 414.046 832.986 409.413 834.649 407.274V405.492C779.288 419.036 751.607 430.205 751.607 438.995ZM725.588 480.692V488.89C729.628 500.771 731.647 507.304 731.647 508.492V524.531C743.528 525.719 749.468 527.62 749.468 530.233C735.924 535.698 727.964 538.43 725.588 538.43V552.33C733.667 545.677 742.339 542.351 751.606 542.351C763.487 546.39 771.327 548.41 775.13 548.41C775.13 535.817 763.963 524.53 741.628 514.55C735.926 491.977 730.578 480.692 725.588 480.692ZM725.588 591.896C725.588 597.836 726.302 601.756 727.727 603.657C726.302 628.132 725.589 648.683 725.589 665.316V697.036H727.727C731.291 676.602 745.191 657.475 769.428 639.655C777.982 636.804 783.922 635.378 787.248 635.378H797.228C805.306 635.378 815.167 640.012 826.81 649.278H832.869V643.576C817.662 633.596 806.376 627.656 799.009 625.755V595.817C799.009 581.561 787.129 570.987 763.369 564.097C749.588 564.097 738.302 573.363 729.51 591.896L725.588 591.896ZM765.507 574.086C775.011 574.086 784.279 582.046 793.306 597.965C793.306 620.301 785.346 631.467 769.426 631.467C769.426 632.893 768.12 633.606 765.506 633.606L763.367 629.685V597.965C763.367 588.698 762.061 581.451 759.447 576.224C760.635 576.224 762.655 575.512 765.507 574.086ZM753.388 576.221H755.527V587.982C755.527 594.873 756.121 600.813 757.309 605.803C757.309 632.89 751.369 650.115 739.489 657.481C733.311 666.748 729.391 671.381 727.727 671.381V663.184C731.766 642.513 735.093 619.463 737.706 594.04C741.27 584.774 746.498 578.835 753.388 576.221ZM751.607 730.897H739.489C731.648 726.145 727.728 718.78 727.728 708.801H725.589V720.919C725.589 732.799 733.549 738.739 749.469 738.739C765.389 738.739 773.348 730.185 773.348 713.077C778.576 703.81 785.229 698.464 793.308 697.038V699.177C788.318 716.047 776.319 739.095 757.31 768.321C737.827 786.616 727.254 801.229 725.589 812.158V822.138H741.628C780.595 822.138 809.702 804.198 828.949 768.32C832.75 754.539 834.651 745.985 834.651 742.658V720.917C834.651 705.235 825.385 692.642 806.852 683.138C781.903 689.791 769.429 699.771 769.429 713.076C765.39 724.956 759.448 730.897 751.607 730.897ZM806.85 690.983C809.939 690.983 813.978 695.023 818.967 703.102C817.304 724.247 796.157 758.583 755.526 806.103C747.448 811.33 742.101 813.944 739.488 813.944C736.874 812.756 734.973 812.162 733.785 812.162V806.103C775.603 754.78 798.057 719.14 801.147 699.18C802.335 699.18 804.236 696.448 806.85 690.983ZM825.027 716.998C827.64 721.275 828.947 725.195 828.947 728.759V736.6C826.809 752.995 819.443 770.221 806.85 788.279C787.13 801.585 774.655 808.239 769.427 808.239C769.427 806.813 768.714 806.1 767.289 806.1L811.126 740.878C818.017 724.958 822.65 716.998 825.027 716.998ZM725.589 756.56L725.59 760.48C728.203 760.48 731.53 754.54 735.569 742.66H733.787C728.322 744.561 725.589 749.194 725.589 756.56ZM783.328 863.839H793.307C820.869 838.891 834.65 822.257 834.65 813.942V812.16L783.328 863.839ZM743.41 863.839H749.469C751.37 863.839 753.389 861.82 755.528 857.781V853.86H753.389C751.726 853.86 748.4 857.186 743.41 863.839ZM825.027 863.839H834.65V853.86C832.986 853.86 829.779 857.186 825.027 863.839Z" fill="white"></path>
</svg></svg></g></g><defs><clipPath id="SvgjsClipPath1849"><rect width="1000" height="1000" x="0" y="0" rx="500" ry="500"></rect></clipPath></defs></svg>